<svg xmlns="http://www.w3.org/2000/svg" version="1.1" xmlns:xlink="http://www.w3.org/1999/xlink" xmlns:svgjs="http://svgjs.dev/svgjs" width="1440" height="560" preserveAspectRatio="none" viewBox="0 0 1440 560"><g mask="url(&quot;#SvgjsMask1007&quot;)" fill="none"><path d="M37.11 140C37.11 101.14 11.72 98.64 0 54.44C-6.84 28.64 -19.6 7.62 0 0C50.4 -19.6 70 0 140 0C210 0 210 0 280 0C350 0 350 0 420 0C490 0 490 0 560 0C630 0 630 0 700 0C767.09 0 806.6 -34.06 834.17 0C863.26 35.94 810.97 75.18 813.33 140C813.89 155.36 828.29 160.36 840 160.36C848.62 160.36 853.32 152.02 854 140C857.84 71.84 816.47 36.18 849.03 0C879.47 -33.82 914.51 0 980 0C1050 0 1050 0 1120 0C1190 0 1190 0 1260 0C1330 0 1330 0 1400 0C1470 0 1502.31 -32.31 1540 0C1572.31 27.69 1547.84 63.17 1540 120C1538.18 133.17 1520.69 131.9 1520.69 140C1520.69 146.14 1538.67 138.81 1540 148.48C1548.32 208.81 1540 214.24 1540 280C1540 350 1540 350 1540 420C1540 473.79 1557.72 484.1 1540 527.58C1529.2 554.1 1513.87 552.84 1482.96 560C1443.87 569.05 1441.48 560 1400 560C1330 560 1330 560 1260 560C1205.67 560 1201.46 570.59 1151.34 560C1131.46 555.8 1137.72 530.42 1120 530.42C1093.67 530.42 1093.67 553.57 1063.24 560C1023.67 568.36 1021.62 560 980 560C942.44 560 921.09 584.31 904.88 560C874.42 514.31 909.47 482.27 886.67 420C877.03 393.68 860.82 382.81 840 382.81C823.96 382.81 817.92 398.17 812.95 420C797.77 486.76 832.75 519.04 799.7 560C776.27 589.04 749.85 560 700 560C630 560 630 560 560 560C490 560 490 560 420 560C350 560 350 560 280 560C210 560 210 560 140 560C79.72 560 33.41 591.03 19.44 560C1.91 521.03 83.24 475.96 77 420C73.52 388.85 17.07 416.82 0 385.78C-21.43 346.82 0 332.89 0 280C0 227.11 -12.56 221.61 0 174.22C5.99 151.61 37.11 161.03 37.11 140" stroke="rgba(3, 108, 225, 0.58)" stroke-width="2"></path><path d="M420 182C398.6 182 396.1 233.89 396.1 280C396.1 296.69 404.66 307.61 420 307.61C451.61 307.61 490 304.15 490 280C490 241.35 445.55 182 420 182" stroke="rgba(3, 108, 225, 0.58)" stroke-width="2"></path><path d="M700 239.17C668.88 239.17 630 263.27 630 280C630 295.22 666.77 303.06 700 303.06C717.83 303.06 732.13 293.81 732.13 280C732.13 261.86 719.95 239.17 700 239.17" stroke="rgba(3, 108, 225, 0.58)" stroke-width="2"></path><path d="M1260 267.5C1251.46 269.89 1248.72 271.36 1247.04 280C1233.93 347.61 1225.46 354.39 1230.42 420C1231.94 440.06 1243.37 451.34 1260 451.34C1282.03 451.34 1287.16 439.52 1307.73 420C1357.16 373.1 1357.06 371.53 1400 318.5C1413.74 301.53 1421.1 299.48 1421.1 280C1421.1 258.84 1420.12 238.78 1400 237.22C1339.57 232.53 1327.94 248.5 1260 267.5" stroke="rgba(3, 108, 225, 0.58)" stroke-width="2"></path><path d="M560 336C542.38 336 522.31 382.38 522.31 420C522.31 440.02 541.8 451.28 560 451.28C576.62 451.28 591.96 439.15 591.96 420C591.96 381.51 577.2 336 560 336" stroke="rgba(3, 108, 225, 0.58)" stroke-width="2"></path><path d="M79.28 140C118.46 85.13 106.42 76.1 140 17.07C146.24 6.1 146.75 1.48 158.92 0C216.75 -7.05 219.46 0 280 0C350 0 350 0 420 0C490 0 490 0 560 0C630 0 630 0 700 0C730.63 0 756.76 -20.95 761.25 0C771.76 49.05 753.97 74.95 730 140C723.34 158.08 716.75 155.55 700 166.25C631.75 209.84 622 255.55 560 248.57C505.34 242.42 512.32 195.11 466.67 140C442.32 110.6 452.89 88.43 420 79.55C359.55 63.23 342.67 69.31 280 89.6C249.33 99.53 233.33 115.96 233.33 140C233.33 161.81 259.81 157.77 280 181.31C319.85 227.77 315.1 231.95 353.41 280C385.1 319.74 386.27 318.83 420 356.9C448.29 388.83 446.43 390.85 477.44 420C516.43 456.65 520.12 488.51 560 488.51C596.4 488.51 595.91 455.13 630 420C665.91 383 664.58 344.24 700 344.24C736.17 344.24 763.26 374.15 773.18 420C786.6 482.03 774.23 507.27 746.67 560C737.64 577.27 723.34 560 700 560C630 560 630 560 560 560C490 560 490 560 420 560C350 560 350 560 280 560C210 560 210 560 140 560C104.03 560 68.06 580.17 68.06 560C68.06 521.31 98.39 495.41 140 442.27C153.2 425.41 177.69 430.48 177.69 420C177.69 409.92 159.47 409.16 140 401.15C70.63 372.61 48.43 388.8 0 346.89C-21.57 328.22 0 313.44 0 280C0 246.56 -15.17 239.91 0 213.11C24.47 169.91 48.46 183.15 79.28 140" stroke="rgba(3, 108, 225, 0.58)" stroke-width="2"></path><path d="M897.75 140C934.44 72.61 925.13 62.65 961.94 0C966.26 -7.35 970.97 0 980 0C1050 0 1050 0 1120 0C1190 0 1190 0 1260 0C1330 0 1330 0 1400 0C1464.16 0 1528.33 -28.23 1528.33 0C1528.33 41.77 1464.16 70 1400 140C1400 140 1400 140 1400 140C1330 172.5 1324.05 163.82 1260 205C1215.16 233.82 1199.4 233.17 1182.22 280C1159.96 340.67 1200.36 357.83 1181.13 420C1169.25 458.39 1157.29 461.66 1120 481.13C1056.72 514.16 1027.46 542.61 980 525C945.11 512.05 984.87 461.59 955.29 420C914.87 363.16 896.27 375.65 840 328.13C813.38 305.65 789.51 305.02 789.51 280C789.51 252.95 816.99 253.76 840 224C871.11 183.76 873.47 184.61 897.75 140" stroke="rgba(3, 108, 225, 0.58)" stroke-width="2"></path><path d="M1469.04 280C1498.73 236.64 1519.63 201.52 1540 201.52C1555.11 201.52 1540 240.76 1540 280C1540 350 1540 350 1540 420C1540 455.37 1560.44 467.26 1540 490.74C1499.51 537.26 1480.12 529.34 1418.15 560C1410.12 563.97 1409.07 560 1400 560C1330 560 1330 560 1260 560C1231.79 560 1203.58 571.68 1203.58 560C1203.58 543.47 1228.42 527.65 1260 503.58C1320.26 457.65 1325.01 463.4 1387.27 420C1395.01 414.61 1395.24 414.15 1400 406C1436.13 344.15 1428.73 338.88 1469.04 280" stroke="rgba(3, 108, 225, 0.58)" stroke-width="2"></path><path d="M121.45 140C135.61 124.87 128.93 102.44 140 102.44C152.46 102.44 151.68 123.61 168.52 140C221.68 191.74 227.17 186.68 280 238.69C298.27 256.68 310.73 256.59 310.73 280C310.73 329.74 316.14 373.6 280 385C230.77 400.53 211.61 353.54 140 333.85C71.61 315.04 58.5 330.5 0 308C-11.5 303.57 0 294 0 280C0 266 -8.8 262.14 0 252C51.92 192.14 65.61 199.65 121.45 140" stroke="rgba(3, 108, 225, 0.58)" stroke-width="2"></path><path d="M280 19.6C264.26 19.6 253.51 5.43 253.51 0C253.51 -4.37 266.75 0 280 0C350 0 420 -4.88 420 0C420 4.92 347.51 19.6 280 19.6" stroke="rgba(3, 108, 225, 0.58)" stroke-width="2"></path><path d="M528.07 140C473.25 70.64 411.09 39.07 420 0C427.05 -30.93 490 0 560 0C618.8 0 663.83 -30.72 677.6 0C695.21 39.28 662.36 80.36 622.76 140C603.56 168.93 588.32 177.14 560 177.14C540.98 177.14 543.25 159.21 528.07 140" stroke="rgba(3, 108, 225, 0.58)" stroke-width="2"></path><path d="M941.5 140C941.5 104.28 955.16 99.92 980 68.37C1010.26 29.92 1010.27 20.24 1051.71 0C1080.27 -13.95 1085.86 0 1120 0C1190 0 1190 0 1260 0C1298.39 0 1335.89 -22.97 1336.77 0C1338.58 47.03 1302.37 71.34 1265.38 140C1263.98 142.59 1262.94 142.5 1260 142.5C1225.25 142.5 1224.93 142.29 1190 140C1154.93 137.7 1153.71 133.33 1120 133.33C1115.67 133.33 1117.86 137.84 1113.91 140C1047.86 176.17 1036.39 210 980 210C950.19 210 941.5 175.09 941.5 140" stroke="rgba(3, 108, 225, 0.58)" stroke-width="2"></path><path d="M1516.99 280C1523.85 264.49 1533.39 254.55 1540 254.55C1544.9 254.55 1540 267.27 1540 280C1540 350 1540 350 1540 420C1540 436.94 1550.83 453.89 1540 453.89C1514.24 453.89 1470.87 450.57 1466.82 420C1459.36 363.63 1487.26 347.22 1516.99 280" stroke="rgba(3, 108, 225, 0.58)" stroke-width="2"></path><path d="M344.62 420C378.58 404.67 384.64 406.2 420 406.2C428.61 406.2 425.47 413.95 432.56 420C495.47 473.72 489.25 486.33 560 525.74C614.9 556.33 683.85 551.28 683.85 560C683.85 568.41 621.92 560 560 560C490 560 490 560 420 560C350 560 350 560 280 560C210 560 210 560 140 560C128.34 560 116.67 566.54 116.67 560C116.67 547.45 121.19 532.25 140 521.82C202.85 486.96 213.74 502.38 280 469.41C316.05 451.47 308.58 436.27 344.62 420" stroke="rgba(3, 108, 225, 0.58)" stroke-width="2"></path><path d="M668.04 420C668.04 398.7 683.83 385.41 700 385.41C716.51 385.41 733.41 398.42 733.41 420C733.41 476.97 716.37 542.5 700 542.5C683.68 542.5 668.04 477.25 668.04 420" stroke="rgba(3, 108, 225, 0.58)" stroke-width="2"></path><path d="M1081.82 420C1081.82 369.97 1107.23 300 1120 300C1132.23 300 1131.83 362.12 1131.83 420C1131.83 428.03 1127.38 431.83 1120 431.83C1102.37 431.83 1081.82 435.88 1081.82 420" stroke="rgba(3, 108, 225, 0.58)" stroke-width="2"></path><path d="M1255.82 560C1255.82 558.78 1257.38 555.82 1260 555.82C1266.47 555.82 1274 558.93 1274 560C1274 561.02 1267 560 1260 560C1257.91 560 1255.82 560.87 1255.82 560" stroke="rgba(3, 108, 225, 0.58)" stroke-width="2"></path></g><defs><mask id="SvgjsMask1007"><rect width="1440" height="560" fill="#ffffff"></rect></mask></defs></svg>